<?xml version="1.0" encoding="utf-8"?>
<!-- Generator: Adobe Illustrator 19.0.0, SVG Export Plug-In . SVG Version: 6.00 Build 0)  -->
<svg version="1.1" id="Capa_1" xmlns="http://www.w3.org/2000/svg" xmlns:xlink="http://www.w3.org/1999/xlink" x="0px" y="0px"
	 viewBox="-258 331.8 130.2 130.2" style="enable-background:new -258 331.8 130.2 130.2;" xml:space="preserve">
<style type="text/css">
	.st0{fill:#FFFFFF;}
</style>
<g>
	<g>
		<path class="st0" d="M-145.9,366.1l-0.7-0.7l-0.3-0.3c-22-21.4-47.9-20.4-65.9-15.6c-47.6,12.6-45.1,51.8-45.1,52.1
			c0.5,8.1,3.5,14.5,9,19c9.5,7.9,23.4,7.6,27.8,7.2c2.8,4.5,8.5,7.5,16.2,7.9l1,0.1c0.4,2.7,1.4,5,3.1,6.7
			c4.2,4.1,11.5,4.6,20.7,4.6c1.3,0,2.6,0,4,0l4.5,0c17.6,0,29-4.3,34.9-13.2C-115.3,401.4-138.3,373.8-145.9,366.1z M-155.5,365.1
			c-17.4,3.4-23.8,20.9-25.9,29.3c-5.6-6.2-0.3-16.6-0.1-17.1c0.7-1.4,0.2-3.1-1.2-3.8c-1.3-0.7-3.1-0.2-3.8,1.2
			c-0.2,0.4-4.9,9.6-2.3,17.9c0.5,1.5,1.2,2.9,2.1,4.1h-4.9l0-0.1c-2.3-3.8-2.8-7.6-1.7-11.8c3.6-13.1,22.5-24.4,26.9-26.8
			C-162.8,359.9-159.1,362.2-155.5,365.1z M-222,409.3c-3.6,0.9-12.3,2-16.6-1.7c-2.2-2-3.1-5.3-2.5-9.8c0.2-1.5-0.9-2.9-2.4-3.1
			c-1.5-0.2-2.9,0.9-3.1,2.4c-0.8,6.5,0.6,11.5,4.4,14.7c3.6,3.1,8.5,3.9,12.9,3.9c2.4,0,4.6-0.3,6.3-0.5c-0.1,1.8-0.1,3.7,0,5.8
			l0.1,1.4c-4.8,0.2-15.4-0.2-22.4-6c-4.2-3.5-6.6-8.6-7-15.1c0-0.3-2.2-34.9,40.9-46.3c7.4-1.9,16.2-3.2,25.4-2.3
			c-1.7,1.3-3.7,3-6,4.9l-0.2,0c-1.5-0.1-36.8-0.2-43.9,23c-0.5,1.5,0.4,3,1.9,3.5l0.8,0.1c1.2,0,2.3-0.8,2.7-2
			c4.3-14,22.5-17.7,32.2-18.7c-4.6,4.5-8.8,9.4-10.5,13.7c-5.3,0.1-13.1,2.5-15.5,11.2c-1.6,5.6,0.9,11.4,5.8,14.7
			C-220.1,404.7-221.3,406.8-222,409.3z M-219.1,389.8c2.2-8,11.4-7.1,11.8-7c1.4,0.2,2.8-0.8,3.1-2.3c1.1-6.6,15.9-19.4,25-26
			l0.6-0.6c1.9,0.4,3.7,1,5.6,1.6c-7.7,4.8-22.3,15.3-25.8,28c-1.3,4.6-0.9,9.1,0.9,13.3h-5.5l-0.4,0c-4,0-7.5,0.9-10.3,2.4
			C-218,397.4-220.1,393.5-219.1,389.8z M-141.5,430.8c-4.8,7.2-14.7,10.7-30.2,10.7l-4.5,0c-9.5,0-17.6,0.1-20.7-3
			c-0.5-0.4-1-1.2-1.3-2.4c8.5,0.4,15.7,0.4,19,0.4c1.3,0,2,0,2,0c1.5,0,2.8-1.3,2.8-2.8c0-1.5-1.5-2.9-2.8-2.8
			c-0.1,0-12.8,0.1-27.4-0.7c-6-0.4-12.9-3-12.9-9.2l0-0.8c-0.4-6.6,0.8-11.4,3.6-14.3c2.3-2.4,5.7-3.6,10.6-3.6h37.1
			c1.5,0,2.8-1.3,2.8-2.8c0-1.5-1.3-2.8-2.8-2.8h-10c1.7-7.4,7.9-26.3,26.4-26.6C-143,377-122.3,401.8-141.5,430.8z"/>
		<path class="st0" d="M-244.9,384.5c-1.5,0.4-2.4,1.8-2.1,3.4c0.3,1.5,1.8,2.5,3.3,2.1c0.1,0,5.5-1.2,8.8,1.7
			c2.2,2,3.1,5.5,2.7,10.6c-0.1,1.5,1,2.9,2.5,3l0.3,0c1.4,0,2.7-1.1,2.8-2.6c0.6-7-0.9-12.1-4.6-15.3
			C-236.7,382.6-244.6,384.4-244.9,384.5z"/>
		<path class="st0" d="M-158.8,415c-3.7,0.3-6.6,2.2-8.7,4c-3.4-3.4-6.9-5.3-10.4-5.6c-4.4-5.1-9-7.6-13.7-7.2
			c-7.2,0.5-11.6,7.3-11.7,7.6c-0.8,1.3-0.4,3,0.9,3.9c1.3,0.8,3,0.4,3.9-0.9c0,0,3-4.7,7.4-5c2.2-0.1,4.4,0.8,6.7,2.8
			c-4.3,2.1-6.8,6.1-6.9,6.3c-0.8,1.3-0.4,3,0.9,3.9c1.3,0.8,3,0.4,3.9-0.9c0,0,3.1-4.7,7.4-5c2.7-0.2,5.5,1.4,8.5,4.6
			c-0.2,1.1,0.2,2.3,1.2,2.9c1.3,0.8,3,0.4,3.9-0.9c0,0,3-4.7,7.4-5c3-0.1,6.1,1.7,9.4,5.6c0.6,0.7,1.4,1,2.1,1
			c0.6,0,1.3-0.2,1.8-0.6c1.2-1,1.3-2.8,0.3-3.9C-149.2,417.2-153.9,414.7-158.8,415z"/>
		<path class="st0" d="M-170.2,416c1.3,0.8,3,0.4,3.9-0.9c0,0,3-4.7,7.4-5c2.9-0.2,6.1,1.7,9.4,5.6c0.6,0.7,1.3,1,2.1,1
			c0.6,0,1.3-0.2,1.8-0.7c1.2-1,1.3-2.8,0.4-3.9c-4.5-5.4-9.3-7.9-14.1-7.6c-7.2,0.5-11.6,7.3-11.7,7.6
			C-171.9,413.5-171.5,415.2-170.2,416z"/>
		<path class="st0" d="M-153.3,379.6c-5.5-0.5-13.7,1.6-14.7,4.6c-0.5,1.5,0.3,3.1,1.8,3.5c1.1,0.4,2.2,0,3-0.8
			c1.4-0.8,7.8-3.1,13.1-0.9c4,1.7,6.5,5.8,7.5,12.2c0.2,1.4,1.4,2.4,2.8,2.4l0.4,0c1.5-0.2,2.6-1.6,2.4-3.2
			C-139.2,383-148.2,380.1-153.3,379.6z"/>
	</g>
</g>
</svg>
