# This file uses centimeters as units for non-parametric coordinates.

mtllib test2.mtl
v 0.820910 -4.601227 -2.526501
v -2.149170 -4.601227 -1.561463
v -2.149170 -4.601227 1.561463
v 0.820910 -4.601227 2.526501
v 2.656520 -4.601227 0.000000
v 1.421858 -2.656520 -4.376028
v -3.722471 -2.656520 -2.704534
v -3.722472 -2.656520 2.704534
v 1.421857 -2.656520 4.376028
v 4.601228 -2.656520 0.000000
v 1.641820 0.000000 -5.053001
v -4.298339 0.000000 -3.122927
v -4.298340 0.000000 3.122926
v 1.641819 0.000000 5.053001
v 5.313040 0.000000 0.000000
v 1.421858 2.656520 -4.376028
v -3.722471 2.656520 -2.704534
v -3.722472 2.656520 2.704534
v 1.421857 2.656520 4.376028
v 4.601228 2.656520 0.000000
v 0.820910 4.601227 -2.526501
v -2.149170 4.601227 -1.561463
v -2.149170 4.601227 1.561463
v 0.820910 4.601227 2.526501
v 2.656520 4.601227 0.000000
v 0.000000 -5.313040 0.000000
v 0.000000 5.313040 0.000000
vt 0.000000 0.166667
vt 0.200000 0.166667
vt 0.400000 0.166667
vt 0.600000 0.166667
vt 0.800000 0.166667
vt 1.000000 0.166667
vt 0.000000 0.333333
vt 0.200000 0.333333
vt 0.400000 0.333333
vt 0.600000 0.333333
vt 0.800000 0.333333
vt 1.000000 0.333333
vt 0.000000 0.500000
vt 0.200000 0.500000
vt 0.400000 0.500000
vt 0.600000 0.500000
vt 0.800000 0.500000
vt 1.000000 0.500000
vt 0.000000 0.666667
vt 0.200000 0.666667
vt 0.400000 0.666667
vt 0.600000 0.666667
vt 0.800000 0.666667
vt 1.000000 0.666667
vt 0.000000 0.833333
vt 0.200000 0.833333
vt 0.400000 0.833333
vt 0.600000 0.833333
vt 0.800000 0.833333
vt 1.000000 0.833333
vt 0.100000 0.000000
vt 0.300000 0.000000
vt 0.500000 0.000000
vt 0.700000 0.000000
vt 0.900000 0.000000
vt 0.100000 1.000000
vt 0.300000 1.000000
vt 0.500000 1.000000
vt 0.700000 1.000000
vt 0.900000 1.000000
vn -0.240241 -0.628960 -0.739387
vn -0.240241 -0.628960 -0.739387
vn -0.240241 -0.628960 -0.739387
vn -0.240241 -0.628960 -0.739387
vn -0.777438 -0.628960 -0.000000
vn -0.777438 -0.628960 -0.000000
vn -0.777437 -0.628960 -0.000000
vn -0.777437 -0.628960 -0.000000
vn -0.240241 -0.628960 0.739387
vn -0.240241 -0.628960 0.739387
vn -0.240241 -0.628960 0.739387
vn -0.240241 -0.628960 0.739387
vn 0.628960 -0.628960 0.456966
vn 0.628960 -0.628960 0.456966
vn 0.628960 -0.628960 0.456966
vn 0.628960 -0.628960 0.456966
vn 0.628960 -0.628960 -0.456966
vn 0.628960 -0.628960 -0.456966
vn 0.628960 -0.628960 -0.456966
vn 0.628960 -0.628960 -0.456966
vn -0.302003 -0.211855 -0.929469
vn -0.302003 -0.211855 -0.929469
vn -0.302003 -0.211855 -0.929469
vn -0.302003 -0.211855 -0.929469
vn -0.977301 -0.211855 -0.000000
vn -0.977301 -0.211855 -0.000000
vn -0.977301 -0.211855 -0.000000
vn -0.977301 -0.211855 -0.000000
vn -0.302003 -0.211855 0.929469
vn -0.302003 -0.211855 0.929469
vn -0.302003 -0.211855 0.929469
vn -0.302003 -0.211855 0.929469
vn 0.790653 -0.211855 0.574443
vn 0.790653 -0.211855 0.574443
vn 0.790653 -0.211855 0.574443
vn 0.790653 -0.211855 0.574443
vn 0.790653 -0.211855 -0.574443
vn 0.790653 -0.211855 -0.574443
vn 0.790653 -0.211855 -0.574443
vn 0.790653 -0.211855 -0.574443
vn -0.302003 0.211855 -0.929469
vn -0.302003 0.211855 -0.929469
vn -0.302003 0.211855 -0.929469
vn -0.302003 0.211855 -0.929469
vn -0.977301 0.211855 -0.000000
vn -0.977301 0.211855 -0.000000
vn -0.977301 0.211855 -0.000000
vn -0.977301 0.211855 -0.000000
vn -0.302003 0.211855 0.929469
vn -0.302003 0.211855 0.929469
vn -0.302003 0.211855 0.929469
vn -0.302003 0.211855 0.929469
vn 0.790653 0.211855 0.574443
vn 0.790653 0.211855 0.574443
vn 0.790653 0.211855 0.574443
vn 0.790653 0.211855 0.574443
vn 0.790653 0.211855 -0.574443
vn 0.790653 0.211855 -0.574443
vn 0.790653 0.211855 -0.574443
vn 0.790653 0.211855 -0.574443
vn -0.240241 0.628960 -0.739387
vn -0.240241 0.628960 -0.739387
vn -0.240241 0.628960 -0.739387
vn -0.240241 0.628960 -0.739387
vn -0.777438 0.628960 -0.000000
vn -0.777438 0.628960 -0.000000
vn -0.777437 0.628960 -0.000000
vn -0.777437 0.628960 -0.000000
vn -0.240241 0.628960 0.739387
vn -0.240241 0.628960 0.739387
vn -0.240241 0.628960 0.739387
vn -0.240241 0.628960 0.739387
vn 0.628960 0.628960 0.456966
vn 0.628960 0.628960 0.456966
vn 0.628960 0.628960 0.456966
vn 0.628960 0.628960 0.456966
vn 0.628960 0.628960 -0.456966
vn 0.628960 0.628960 -0.456966
vn 0.628960 0.628960 -0.456966
vn 0.628960 0.628960 -0.456966
vn -0.097157 -0.949288 -0.299019
vn -0.097157 -0.949288 -0.299019
vn -0.097157 -0.949288 -0.299019
vn -0.314408 -0.949288 0.000000
vn -0.314408 -0.949288 0.000000
vn -0.314407 -0.949288 0.000000
vn -0.097157 -0.949288 0.299019
vn -0.097157 -0.949288 0.299019
vn -0.097157 -0.949288 0.299019
vn 0.254361 -0.949288 0.184804
vn 0.254361 -0.949288 0.184804
vn 0.254361 -0.949288 0.184804
vn 0.254361 -0.949288 -0.184804
vn 0.254361 -0.949288 -0.184804
vn 0.254361 -0.949288 -0.184804
vn -0.097157 0.949288 -0.299019
vn -0.097157 0.949288 -0.299019
vn -0.097157 0.949288 -0.299019
vn -0.314407 0.949288 0.000000
vn -0.314407 0.949288 0.000000
vn -0.314407 0.949288 0.000000
vn -0.097157 0.949288 0.299019
vn -0.097157 0.949288 0.299019
vn -0.097157 0.949288 0.299019
vn 0.254361 0.949288 0.184804
vn 0.254361 0.949288 0.184804
vn 0.254361 0.949288 0.184804
vn 0.254361 0.949288 -0.184804
vn 0.254361 0.949288 -0.184804
vn 0.254361 0.949288 -0.184804
s off
usemtl initialShadingGroup
f 1/1/1 2/2/2 7/8/3 6/7/4
f 2/2/5 3/3/6 8/9/7 7/8/8
f 3/3/9 4/4/10 9/10/11 8/9/12
f 4/4/13 5/5/14 10/11/15 9/10/16
f 5/5/17 1/6/18 6/12/19 10/11/20
f 6/7/21 7/8/22 12/14/23 11/13/24
f 7/8/25 8/9/26 13/15/27 12/14/28
f 8/9/29 9/10/30 14/16/31 13/15/32
f 9/10/33 10/11/34 15/17/35 14/16/36
f 10/11/37 6/12/38 11/18/39 15/17/40
f 11/13/41 12/14/42 17/20/43 16/19/44
f 12/14/45 13/15/46 18/21/47 17/20/48
f 13/15/49 14/16/50 19/22/51 18/21/52
f 14/16/53 15/17/54 20/23/55 19/22/56
f 15/17/57 11/18/58 16/24/59 20/23/60
f 16/19/61 17/20/62 22/26/63 21/25/64
f 17/20/65 18/21/66 23/27/67 22/26/68
f 18/21/69 19/22/70 24/28/71 23/27/72
f 19/22/73 20/23/74 25/29/75 24/28/76
f 20/23/77 16/24/78 21/30/79 25/29/80
f 2/2/81 1/1/82 26/31/83
f 3/3/84 2/2/85 26/32/86
f 4/4/87 3/3/88 26/33/89
f 5/5/90 4/4/91 26/34/92
f 1/6/93 5/5/94 26/35/95
f 21/25/96 22/26/97 27/36/98
f 22/26/99 23/27/100 27/37/101
f 23/27/102 24/28/103 27/38/104
f 24/28/105 25/29/106 27/39/107
f 25/29/108 21/30/109 27/40/110
